<?xml version="1.0" standalone="no"?>
<!DOCTYPE svg PUBLIC "-//W3C//DTD SVG 20010904//EN"
 "http://www.w3.org/TR/2001/REC-SVG-20010904/DTD/svg10.dtd">
<svg version="1.0" xmlns="http://www.w3.org/2000/svg"
 width="1280.000000pt" height="1280.000000pt" viewBox="0 0 1280.000000 1280.000000"
 preserveAspectRatio="xMidYMid meet">
<metadata>
Created by potrace 1.15, written by Peter Selinger 2001-2017
</metadata>
<g transform="translate(0.000000,1280.000000) scale(0.100000,-0.100000)"
fill="#000000" stroke="none">
<path d="M2994 12644 c-336 -45 -665 -189 -929 -405 -86 -70 -246 -234 -307
-314 -211 -278 -341 -608 -378 -956 -43 -413 62 -852 289 -1202 l61 -94 -79
-154 c-156 -301 -235 -522 -302 -847 -53 -260 -68 -626 -35 -883 93 -731 418
-1370 986 -1940 287 -288 583 -515 963 -737 l137 -80 -112 -93 c-279 -231
-615 -551 -764 -729 -206 -245 -319 -450 -360 -651 -21 -105 -15 -248 15 -333
61 -173 210 -298 409 -342 60 -13 104 -15 226 -10 83 3 165 8 182 12 29 5 21
-5 -75 -103 -216 -219 -358 -484 -423 -789 -31 -145 -33 -458 -5 -599 130
-641 611 -1122 1252 -1252 126 -25 452 -25 580 1 300 60 575 203 798 416 l105
101 119 -36 c645 -197 1324 -227 1998 -90 149 30 459 115 473 130 3 2 55 -44
117 -103 219 -213 472 -347 779 -414 86 -19 132 -22 306 -22 176 0 220 3 310
23 612 132 1070 575 1216 1176 85 353 41 724 -126 1060 -94 188 -230 363 -387
496 l-52 44 112 1 c70 0 136 7 177 17 279 73 433 311 400 618 -39 366 -320
792 -940 1422 -186 190 -203 210 -185 220 41 22 273 182 350 241 630 479 1076
1064 1298 1704 58 165 112 382 138 555 26 173 36 491 20 663 -36 380 -147 768
-317 1105 l-33 67 51 63 c544 675 556 1630 30 2324 -61 80 -221 244 -307 314
-334 273 -750 421 -1185 421 -630 0 -1210 -309 -1558 -830 -42 -63 -77 -116
-78 -118 -1 -2 -93 17 -205 42 -888 196 -1818 207 -2697 31 -95 -19 -177 -35
-182 -35 -4 0 -19 17 -31 38 -142 236 -412 490 -673 636 -350 194 -776 274
-1172 220z"/>
</g>
</svg>
